<mxfile host="app.diagrams.net" modified="2023-04-14T17:40:34.793Z" agent="Mozilla/5.0 (Macintosh; Intel Mac OS X 10_15_7) AppleWebKit/537.36 (KHTML, like Gecko) Chrome/111.0.0.0 Safari/537.36" etag="N1A2iXjCbHgZX-fKeEkF" version="21.1.7" type="device">
  <diagram name="Page-1" id="JtbFiajrd-7srPfsZ-1I">
    <mxGraphModel dx="903" dy="603" grid="1" gridSize="10" guides="1" tooltips="1" connect="1" arrows="1" fold="1" page="1" pageScale="1" pageWidth="850" pageHeight="1100" math="0" shadow="0">
      <root>
        <mxCell id="0" />
        <mxCell id="1" parent="0" />
        <mxCell id="96RNWIto9iblRCjP-LKd-23" value="" style="endArrow=classic;html=1;strokeWidth=2;exitX=1;exitY=0.25;exitDx=0;exitDy=0;curved=1;entryX=1;entryY=0.75;entryDx=0;entryDy=0;elbow=vertical;" edge="1" parent="1">
          <mxGeometry width="50" height="50" relative="1" as="geometry">
            <mxPoint x="185" y="265" as="sourcePoint" />
            <mxPoint x="185" y="285" as="targetPoint" />
            <Array as="points">
              <mxPoint x="235" y="265" />
            </Array>
          </mxGeometry>
        </mxCell>
        <mxCell id="96RNWIto9iblRCjP-LKd-20" value="" style="endArrow=classic;html=1;strokeWidth=2;exitX=1;exitY=0.25;exitDx=0;exitDy=0;curved=1;entryX=1;entryY=0.75;entryDx=0;entryDy=0;elbow=vertical;" edge="1" parent="1">
          <mxGeometry width="50" height="50" relative="1" as="geometry">
            <mxPoint x="185" y="196" as="sourcePoint" />
            <mxPoint x="185" y="216" as="targetPoint" />
            <Array as="points">
              <mxPoint x="235" y="196" />
            </Array>
          </mxGeometry>
        </mxCell>
        <mxCell id="96RNWIto9iblRCjP-LKd-1" value="&lt;font style=&quot;font-size: 13px;&quot;&gt;.p4&lt;/font&gt;" style="rounded=0;whiteSpace=wrap;html=1;strokeWidth=2;" vertex="1" parent="1">
          <mxGeometry x="135" y="50" width="50" height="30" as="geometry" />
        </mxCell>
        <mxCell id="96RNWIto9iblRCjP-LKd-2" value="&lt;font style=&quot;font-size: 13px;&quot;&gt;IR&lt;sub&gt;1&lt;/sub&gt;&lt;/font&gt;" style="rounded=0;whiteSpace=wrap;html=1;strokeWidth=2;" vertex="1" parent="1">
          <mxGeometry x="135" y="120" width="50" height="30" as="geometry" />
        </mxCell>
        <mxCell id="96RNWIto9iblRCjP-LKd-3" value="&lt;font style=&quot;font-size: 13px;&quot;&gt;IR&lt;sub&gt;2&lt;/sub&gt;&lt;/font&gt;" style="rounded=0;whiteSpace=wrap;html=1;strokeWidth=2;" vertex="1" parent="1">
          <mxGeometry x="135" y="191" width="50" height="30" as="geometry" />
        </mxCell>
        <mxCell id="96RNWIto9iblRCjP-LKd-4" value="&lt;font style=&quot;font-size: 13px;&quot;&gt;IR&lt;sub&gt;3&lt;/sub&gt;&lt;/font&gt;" style="rounded=0;whiteSpace=wrap;html=1;strokeWidth=2;" vertex="1" parent="1">
          <mxGeometry x="135" y="260" width="50" height="30" as="geometry" />
        </mxCell>
        <mxCell id="96RNWIto9iblRCjP-LKd-5" value="&lt;font style=&quot;font-size: 13px;&quot;&gt;IR&lt;sub&gt;4&lt;/sub&gt;&lt;/font&gt;" style="rounded=0;whiteSpace=wrap;html=1;strokeWidth=2;" vertex="1" parent="1">
          <mxGeometry x="137" y="330" width="50" height="30" as="geometry" />
        </mxCell>
        <mxCell id="96RNWIto9iblRCjP-LKd-6" value="&lt;span style=&quot;font-size: 13px;&quot;&gt;IR&lt;sub&gt;5&lt;/sub&gt;&lt;/span&gt;" style="rounded=0;whiteSpace=wrap;html=1;strokeWidth=2;" vertex="1" parent="1">
          <mxGeometry x="135" y="400" width="50" height="30" as="geometry" />
        </mxCell>
        <mxCell id="96RNWIto9iblRCjP-LKd-7" value="&lt;span style=&quot;font-size: 13px;&quot;&gt;IR&lt;sub&gt;6&lt;/sub&gt;&lt;/span&gt;" style="rounded=0;whiteSpace=wrap;html=1;strokeWidth=2;" vertex="1" parent="1">
          <mxGeometry x="137" y="470" width="50" height="30" as="geometry" />
        </mxCell>
        <mxCell id="96RNWIto9iblRCjP-LKd-8" value="" style="endArrow=classic;html=1;rounded=0;strokeWidth=2;exitX=0.5;exitY=1;exitDx=0;exitDy=0;entryX=0.5;entryY=0;entryDx=0;entryDy=0;" edge="1" parent="1" source="96RNWIto9iblRCjP-LKd-1" target="96RNWIto9iblRCjP-LKd-2">
          <mxGeometry width="50" height="50" relative="1" as="geometry">
            <mxPoint x="310" y="340" as="sourcePoint" />
            <mxPoint x="360" y="290" as="targetPoint" />
          </mxGeometry>
        </mxCell>
        <mxCell id="96RNWIto9iblRCjP-LKd-10" value="&lt;font style=&quot;font-size: 11px;&quot;&gt;Parsing&lt;/font&gt;" style="edgeLabel;html=1;align=center;verticalAlign=middle;resizable=0;points=[];labelBackgroundColor=#B9E0A5;" vertex="1" connectable="0" parent="96RNWIto9iblRCjP-LKd-8">
          <mxGeometry x="0.1" relative="1" as="geometry">
            <mxPoint y="-8" as="offset" />
          </mxGeometry>
        </mxCell>
        <mxCell id="96RNWIto9iblRCjP-LKd-9" value="" style="endArrow=classic;html=1;strokeWidth=2;exitX=1;exitY=0.25;exitDx=0;exitDy=0;curved=1;entryX=1;entryY=0.75;entryDx=0;entryDy=0;elbow=vertical;" edge="1" parent="1" source="96RNWIto9iblRCjP-LKd-2" target="96RNWIto9iblRCjP-LKd-2">
          <mxGeometry width="50" height="50" relative="1" as="geometry">
            <mxPoint x="320" y="350" as="sourcePoint" />
            <mxPoint x="240" y="150" as="targetPoint" />
            <Array as="points">
              <mxPoint x="250" y="130" />
            </Array>
          </mxGeometry>
        </mxCell>
        <mxCell id="96RNWIto9iblRCjP-LKd-13" value="Validate &lt;br&gt;parsed &lt;br&gt;program" style="edgeLabel;html=1;align=center;verticalAlign=middle;resizable=0;points=[];labelBackgroundColor=#FF9999;" vertex="1" connectable="0" parent="96RNWIto9iblRCjP-LKd-9">
          <mxGeometry x="-0.7111" relative="1" as="geometry">
            <mxPoint x="24" y="-1" as="offset" />
          </mxGeometry>
        </mxCell>
        <mxCell id="96RNWIto9iblRCjP-LKd-12" value="" style="endArrow=classic;html=1;rounded=0;strokeWidth=2;exitX=0.5;exitY=1;exitDx=0;exitDy=0;" edge="1" parent="1" source="96RNWIto9iblRCjP-LKd-2">
          <mxGeometry width="50" height="50" relative="1" as="geometry">
            <mxPoint x="330" y="360" as="sourcePoint" />
            <mxPoint x="160" y="190" as="targetPoint" />
          </mxGeometry>
        </mxCell>
        <mxCell id="96RNWIto9iblRCjP-LKd-15" value="&lt;font style=&quot;font-size: 11px;&quot;&gt;Create builtins&lt;/font&gt;" style="edgeLabel;html=1;align=center;verticalAlign=middle;resizable=0;points=[];labelBackgroundColor=#B9E0A5;" vertex="1" connectable="0" parent="96RNWIto9iblRCjP-LKd-12">
          <mxGeometry x="-0.3" y="-1" relative="1" as="geometry">
            <mxPoint as="offset" />
          </mxGeometry>
        </mxCell>
        <mxCell id="96RNWIto9iblRCjP-LKd-14" value="" style="endArrow=classic;html=1;rounded=0;strokeWidth=2;exitX=0.5;exitY=1;exitDx=0;exitDy=0;" edge="1" parent="1" source="96RNWIto9iblRCjP-LKd-3" target="96RNWIto9iblRCjP-LKd-4">
          <mxGeometry width="50" height="50" relative="1" as="geometry">
            <mxPoint x="340" y="370" as="sourcePoint" />
            <mxPoint x="390" y="320" as="targetPoint" />
          </mxGeometry>
        </mxCell>
        <mxCell id="96RNWIto9iblRCjP-LKd-22" value="Constant folding" style="edgeLabel;html=1;align=center;verticalAlign=middle;resizable=0;points=[];labelBackgroundColor=#B9E0A5;" vertex="1" connectable="0" parent="96RNWIto9iblRCjP-LKd-14">
          <mxGeometry x="-0.125" relative="1" as="geometry">
            <mxPoint y="-3" as="offset" />
          </mxGeometry>
        </mxCell>
        <mxCell id="96RNWIto9iblRCjP-LKd-16" value="" style="endArrow=classic;html=1;rounded=0;strokeWidth=2;exitX=0.5;exitY=1;exitDx=0;exitDy=0;entryX=0.5;entryY=0;entryDx=0;entryDy=0;" edge="1" parent="1" source="96RNWIto9iblRCjP-LKd-4" target="96RNWIto9iblRCjP-LKd-5">
          <mxGeometry width="50" height="50" relative="1" as="geometry">
            <mxPoint x="350" y="380" as="sourcePoint" />
            <mxPoint x="400" y="330" as="targetPoint" />
          </mxGeometry>
        </mxCell>
        <mxCell id="96RNWIto9iblRCjP-LKd-39" value="Inference" style="edgeLabel;html=1;align=center;verticalAlign=middle;resizable=0;points=[];labelBackgroundColor=#FF9999;" vertex="1" connectable="0" parent="96RNWIto9iblRCjP-LKd-16">
          <mxGeometry x="-0.15" relative="1" as="geometry">
            <mxPoint y="-2" as="offset" />
          </mxGeometry>
        </mxCell>
        <mxCell id="96RNWIto9iblRCjP-LKd-17" value="" style="endArrow=classic;html=1;rounded=0;strokeWidth=2;exitX=0.5;exitY=1;exitDx=0;exitDy=0;entryX=0.5;entryY=0;entryDx=0;entryDy=0;" edge="1" parent="1" source="96RNWIto9iblRCjP-LKd-5" target="96RNWIto9iblRCjP-LKd-6">
          <mxGeometry width="50" height="50" relative="1" as="geometry">
            <mxPoint x="360" y="390" as="sourcePoint" />
            <mxPoint x="410" y="340" as="targetPoint" />
          </mxGeometry>
        </mxCell>
        <mxCell id="96RNWIto9iblRCjP-LKd-40" value="Validate/check X" style="edgeLabel;html=1;align=center;verticalAlign=middle;resizable=0;points=[];labelBackgroundColor=#FF9999;" vertex="1" connectable="0" parent="96RNWIto9iblRCjP-LKd-17">
          <mxGeometry x="-0.05" y="1" relative="1" as="geometry">
            <mxPoint y="-3" as="offset" />
          </mxGeometry>
        </mxCell>
        <mxCell id="96RNWIto9iblRCjP-LKd-18" value="" style="endArrow=classic;html=1;rounded=0;strokeWidth=2;exitX=0.5;exitY=1;exitDx=0;exitDy=0;entryX=0.5;entryY=0;entryDx=0;entryDy=0;" edge="1" parent="1" source="96RNWIto9iblRCjP-LKd-6" target="96RNWIto9iblRCjP-LKd-7">
          <mxGeometry width="50" height="50" relative="1" as="geometry">
            <mxPoint x="370" y="400" as="sourcePoint" />
            <mxPoint x="420" y="350" as="targetPoint" />
          </mxGeometry>
        </mxCell>
        <mxCell id="96RNWIto9iblRCjP-LKd-42" value="Bind type variables" style="edgeLabel;html=1;align=center;verticalAlign=middle;resizable=0;points=[];labelBackgroundColor=#FF9999;" vertex="1" connectable="0" parent="96RNWIto9iblRCjP-LKd-18">
          <mxGeometry x="-0.2" y="2" relative="1" as="geometry">
            <mxPoint y="-1" as="offset" />
          </mxGeometry>
        </mxCell>
        <mxCell id="96RNWIto9iblRCjP-LKd-35" value="" style="group" vertex="1" connectable="0" parent="1">
          <mxGeometry x="195" y="254" width="60" height="30" as="geometry" />
        </mxCell>
        <mxCell id="96RNWIto9iblRCjP-LKd-36" value="" style="rounded=0;whiteSpace=wrap;html=1;fillColor=#FF9999;strokeColor=none;" vertex="1" parent="96RNWIto9iblRCjP-LKd-35">
          <mxGeometry x="6" width="20" height="30" as="geometry" />
        </mxCell>
        <mxCell id="96RNWIto9iblRCjP-LKd-37" value="" style="rounded=0;whiteSpace=wrap;html=1;fillColor=#B9E0A5;strokeColor=none;" vertex="1" parent="96RNWIto9iblRCjP-LKd-35">
          <mxGeometry x="26" width="26" height="30" as="geometry" />
        </mxCell>
        <mxCell id="96RNWIto9iblRCjP-LKd-38" value="Resolve reference" style="text;html=1;strokeColor=none;fillColor=none;align=center;verticalAlign=middle;whiteSpace=wrap;rounded=0;fontSize=11;" vertex="1" parent="96RNWIto9iblRCjP-LKd-35">
          <mxGeometry width="60" height="30" as="geometry" />
        </mxCell>
        <mxCell id="96RNWIto9iblRCjP-LKd-41" value="X can be match annotation or value sets" style="text;html=1;strokeColor=none;fillColor=none;align=center;verticalAlign=middle;whiteSpace=wrap;rounded=0;" vertex="1" parent="1">
          <mxGeometry x="220" y="370" width="60" height="30" as="geometry" />
        </mxCell>
        <mxCell id="96RNWIto9iblRCjP-LKd-45" value="" style="endArrow=classic;html=1;rounded=0;strokeWidth=2;exitX=0.5;exitY=1;exitDx=0;exitDy=0;entryX=0.5;entryY=0;entryDx=0;entryDy=0;" edge="1" parent="1">
          <mxGeometry width="50" height="50" relative="1" as="geometry">
            <mxPoint x="159.5" y="500" as="sourcePoint" />
            <mxPoint x="159.5" y="540" as="targetPoint" />
          </mxGeometry>
        </mxCell>
        <mxCell id="96RNWIto9iblRCjP-LKd-47" value="&lt;font style=&quot;font-size: 28px;&quot;&gt;...&lt;/font&gt;" style="text;html=1;strokeColor=none;fillColor=none;align=center;verticalAlign=middle;whiteSpace=wrap;rounded=0;rotation=90;" vertex="1" parent="1">
          <mxGeometry x="137" y="544" width="60" height="30" as="geometry" />
        </mxCell>
        <mxCell id="96RNWIto9iblRCjP-LKd-48" value="" style="group" vertex="1" connectable="0" parent="1">
          <mxGeometry x="194" y="185" width="60" height="30" as="geometry" />
        </mxCell>
        <mxCell id="96RNWIto9iblRCjP-LKd-49" value="" style="rounded=0;whiteSpace=wrap;html=1;fillColor=#FF9999;strokeColor=none;" vertex="1" parent="96RNWIto9iblRCjP-LKd-48">
          <mxGeometry x="6" width="20" height="30" as="geometry" />
        </mxCell>
        <mxCell id="96RNWIto9iblRCjP-LKd-50" value="" style="rounded=0;whiteSpace=wrap;html=1;fillColor=#B9E0A5;strokeColor=none;" vertex="1" parent="96RNWIto9iblRCjP-LKd-48">
          <mxGeometry x="26" width="26" height="30" as="geometry" />
        </mxCell>
        <mxCell id="96RNWIto9iblRCjP-LKd-51" value="Resolve reference" style="text;html=1;strokeColor=none;fillColor=none;align=center;verticalAlign=middle;whiteSpace=wrap;rounded=0;fontSize=11;" vertex="1" parent="96RNWIto9iblRCjP-LKd-48">
          <mxGeometry width="60" height="30" as="geometry" />
        </mxCell>
        <mxCell id="96RNWIto9iblRCjP-LKd-52" value="&lt;font style=&quot;font-size: 13px;&quot;&gt;IR&lt;sub&gt;n&lt;/sub&gt;&lt;/font&gt;" style="rounded=0;whiteSpace=wrap;html=1;strokeWidth=2;" vertex="1" parent="1">
          <mxGeometry x="425" y="120" width="50" height="30" as="geometry" />
        </mxCell>
        <mxCell id="96RNWIto9iblRCjP-LKd-53" value="&lt;font style=&quot;font-size: 13px;&quot;&gt;IR&lt;/font&gt;&lt;font style=&quot;font-size: 10.8333px;&quot;&gt;&lt;sub&gt;m&lt;/sub&gt;&lt;/font&gt;" style="rounded=0;whiteSpace=wrap;html=1;strokeWidth=2;" vertex="1" parent="1">
          <mxGeometry x="425.5" y="270" width="50" height="30" as="geometry" />
        </mxCell>
        <mxCell id="96RNWIto9iblRCjP-LKd-54" value="" style="endArrow=classic;html=1;rounded=0;strokeWidth=2;exitX=0.5;exitY=1;exitDx=0;exitDy=0;entryX=0;entryY=0.75;entryDx=0;entryDy=0;" edge="1" parent="1" source="96RNWIto9iblRCjP-LKd-52" target="96RNWIto9iblRCjP-LKd-58">
          <mxGeometry width="50" height="50" relative="1" as="geometry">
            <mxPoint x="600" y="410" as="sourcePoint" />
            <mxPoint x="450" y="180" as="targetPoint" />
          </mxGeometry>
        </mxCell>
        <mxCell id="96RNWIto9iblRCjP-LKd-55" value="&lt;font style=&quot;font-size: 17px;&quot;&gt;...&lt;/font&gt;" style="edgeLabel;html=1;align=center;verticalAlign=middle;resizable=0;points=[];labelBackgroundColor=#B9E0A5;" vertex="1" connectable="0" parent="96RNWIto9iblRCjP-LKd-54">
          <mxGeometry x="0.1" relative="1" as="geometry">
            <mxPoint y="-8" as="offset" />
          </mxGeometry>
        </mxCell>
        <mxCell id="96RNWIto9iblRCjP-LKd-56" value="" style="endArrow=classic;html=1;strokeWidth=2;exitX=1;exitY=0.25;exitDx=0;exitDy=0;curved=1;entryX=1;entryY=0.75;entryDx=0;entryDy=0;elbow=vertical;" edge="1" parent="1">
          <mxGeometry width="50" height="50" relative="1" as="geometry">
            <mxPoint x="475.5" y="127.5" as="sourcePoint" />
            <mxPoint x="475.5" y="142.5" as="targetPoint" />
            <Array as="points">
              <mxPoint x="540.5" y="130" />
            </Array>
          </mxGeometry>
        </mxCell>
        <mxCell id="96RNWIto9iblRCjP-LKd-58" value="&lt;font style=&quot;font-size: 28px;&quot;&gt;...&lt;/font&gt;" style="text;html=1;strokeColor=none;fillColor=none;align=center;verticalAlign=middle;whiteSpace=wrap;rounded=0;rotation=90;" vertex="1" parent="1">
          <mxGeometry x="438.5" y="197.5" width="37" height="30" as="geometry" />
        </mxCell>
        <mxCell id="96RNWIto9iblRCjP-LKd-62" value="" style="endArrow=classic;html=1;rounded=0;strokeWidth=2;entryX=0.5;entryY=0;entryDx=0;entryDy=0;" edge="1" parent="1" target="96RNWIto9iblRCjP-LKd-53">
          <mxGeometry width="50" height="50" relative="1" as="geometry">
            <mxPoint x="451" y="230" as="sourcePoint" />
            <mxPoint x="450" y="270" as="targetPoint" />
          </mxGeometry>
        </mxCell>
        <mxCell id="96RNWIto9iblRCjP-LKd-63" value="&lt;font style=&quot;font-size: 17px;&quot;&gt;...&lt;/font&gt;" style="edgeLabel;html=1;align=center;verticalAlign=middle;resizable=0;points=[];labelBackgroundColor=#B9E0A5;" vertex="1" connectable="0" parent="96RNWIto9iblRCjP-LKd-62">
          <mxGeometry x="0.1" relative="1" as="geometry">
            <mxPoint y="-8" as="offset" />
          </mxGeometry>
        </mxCell>
        <mxCell id="96RNWIto9iblRCjP-LKd-68" value="" style="group" vertex="1" connectable="0" parent="1">
          <mxGeometry x="482" y="110" width="60" height="30" as="geometry" />
        </mxCell>
        <mxCell id="96RNWIto9iblRCjP-LKd-65" value="" style="rounded=0;whiteSpace=wrap;html=1;fillColor=#FF9999;strokeColor=none;" vertex="1" parent="96RNWIto9iblRCjP-LKd-68">
          <mxGeometry x="10" y="10" width="16" height="20" as="geometry" />
        </mxCell>
        <mxCell id="96RNWIto9iblRCjP-LKd-66" value="" style="rounded=0;whiteSpace=wrap;html=1;fillColor=#B9E0A5;strokeColor=none;" vertex="1" parent="96RNWIto9iblRCjP-LKd-68">
          <mxGeometry x="26" y="10" width="24" height="20" as="geometry" />
        </mxCell>
        <mxCell id="96RNWIto9iblRCjP-LKd-67" value="&lt;font style=&quot;font-size: 16px;&quot;&gt;...&lt;/font&gt;" style="text;html=1;strokeColor=none;fillColor=none;align=center;verticalAlign=middle;whiteSpace=wrap;rounded=0;fontSize=11;" vertex="1" parent="96RNWIto9iblRCjP-LKd-68">
          <mxGeometry width="60" height="30" as="geometry" />
        </mxCell>
        <mxCell id="96RNWIto9iblRCjP-LKd-69" value="" style="endArrow=classic;html=1;strokeWidth=2;exitX=1;exitY=0.25;exitDx=0;exitDy=0;curved=1;entryX=1;entryY=0.75;entryDx=0;entryDy=0;elbow=vertical;" edge="1" parent="1">
          <mxGeometry width="50" height="50" relative="1" as="geometry">
            <mxPoint x="475.5" y="277" as="sourcePoint" />
            <mxPoint x="475.5" y="292" as="targetPoint" />
            <Array as="points">
              <mxPoint x="540.5" y="279.5" />
            </Array>
          </mxGeometry>
        </mxCell>
        <mxCell id="96RNWIto9iblRCjP-LKd-70" value="" style="group" vertex="1" connectable="0" parent="1">
          <mxGeometry x="480" y="260" width="60" height="30" as="geometry" />
        </mxCell>
        <mxCell id="96RNWIto9iblRCjP-LKd-71" value="" style="rounded=0;whiteSpace=wrap;html=1;fillColor=#FF9999;strokeColor=none;" vertex="1" parent="96RNWIto9iblRCjP-LKd-70">
          <mxGeometry x="10" y="10" width="16" height="20" as="geometry" />
        </mxCell>
        <mxCell id="96RNWIto9iblRCjP-LKd-72" value="" style="rounded=0;whiteSpace=wrap;html=1;fillColor=#B9E0A5;strokeColor=none;" vertex="1" parent="96RNWIto9iblRCjP-LKd-70">
          <mxGeometry x="26" y="10" width="24" height="20" as="geometry" />
        </mxCell>
        <mxCell id="96RNWIto9iblRCjP-LKd-73" value="&lt;font style=&quot;font-size: 16px;&quot;&gt;...&lt;/font&gt;" style="text;html=1;strokeColor=none;fillColor=none;align=center;verticalAlign=middle;whiteSpace=wrap;rounded=0;fontSize=11;" vertex="1" parent="96RNWIto9iblRCjP-LKd-70">
          <mxGeometry width="60" height="30" as="geometry" />
        </mxCell>
      </root>
    </mxGraphModel>
  </diagram>
</mxfile>
